<?xml version="1.0" encoding="utf-8"?>
<!-- Generator: Adobe Illustrator 24.1.2, SVG Export Plug-In . SVG Version: 6.00 Build 0)  -->
<svg version="1.1" id="Layer_1" xmlns="http://www.w3.org/2000/svg" xmlns:xlink="http://www.w3.org/1999/xlink" x="0px" y="0px"
	 viewBox="0 0 50 50" style="enable-background:new 0 0 50 50;" xml:space="preserve">
<style type="text/css">
	.st0{fill:#FFFFFF;}
</style>
<path class="st0" d="M47.3,16.1c-3.5,3.6-9.2,3.7-12.8,0.2L19.8,25l14.6,8.8c3.6-3.5,9.3-3.4,12.8,0.2c5.8,5.9,1.7,16-6.5,16
	c-5.4,0-9.3-4.5-9.2-9.8l-15.2-9c-3.5,4.1-9.7,4.3-13.5,0.5c-3.6-3.6-3.6-9.6,0-13.3c3.8-3.9,10-3.6,13.5,0.5l15.2-9
	c-0.1-4.9,3.1-9.1,7.9-9.8C48.2-1.1,53.5,9.7,47.3,16.1L47.3,16.1z"/>
</svg>
