<?xml version="1.0" encoding="utf-8"?>
<!-- Generator: Adobe Illustrator 24.1.2, SVG Export Plug-In . SVG Version: 6.00 Build 0)  -->
<svg version="1.1" id="Layer_1" xmlns="http://www.w3.org/2000/svg" xmlns:xlink="http://www.w3.org/1999/xlink" x="0px" y="0px"
	 viewBox="0 0 1000 1000" style="enable-background:new 0 0 1000 1000;" xml:space="preserve">
<style type="text/css">
	.st0{fill:#FFFFFF;}
</style>
<g>
	<path class="st0" d="M803.8,666.6c-41.8,0-80.2,13-110.8,34.5L376,527.2c1.5-8.9,2.6-18,2.6-27.2c0-9.4-1.1-18.4-2.6-27.2l317-174
		c30.8,21.6,69.1,34.6,110.8,34.6c100.6,0,182.3-74.6,182.3-166.6S904.4,0,803.8,0S621.5,74.6,621.5,166.6c0,9.3,1.1,18.4,2.6,27.2
		l-317,173.9c-30.7-21.6-69.1-34.6-110.9-34.6C95.6,333.2,14,407.8,14,499.8s81.5,166.6,182.3,166.6c41.8,0,80.2-13,110.9-34.5
		l317,174c-1.6,8.9-2.6,18-2.6,27.3c0,91.9,81.7,166.6,182.3,166.6S986,925.4,986,833.4C986,741.2,904.4,666.6,803.8,666.6
		L803.8,666.6z"/>
</g>
</svg>
